<svg width="13" height="13" fill="none" xmlns="http://www.w3.org/2000/svg"><path d="M6.5 3.405a.464.464 0 00-.464.464V9.13a.464.464 0 10.928 0V3.869a.464.464 0 00-.464-.464z" fill="#23C967"/><path d="M9.131 6.036H3.87a.464.464 0 100 .928h5.26a.464.464 0 100-.928z" fill="#23C967"/><path d="M6.5 0A6.507 6.507 0 000 6.5C0 10.084 2.916 13 6.5 13S13 10.084 13 6.5 10.084 0 6.5 0zm0 12.071A5.578 5.578 0 01.929 6.5 5.577 5.577 0 016.5.929 5.577 5.577 0 0112.071 6.5 5.577 5.577 0 016.5 12.071z" fill="#23C967"/></svg>